<svg width="470" height="105" viewBox="0 0 470 105" fill="none" xmlns="http://www.w3.org/2000/svg">
<g clip-path="url(#clip0_2410_19735)">
<g clip-path="url(#clip1_2410_19735)">
<path d="M24.2888 17.3716H4.83007C2.62772 17.3716 0.927175 17.9525 -0.243695 19.1142C-1.41457 20.2759 -2 21.9632 -2 24.1484V80.7969C-2 82.982 -1.41457 84.6693 -0.243695 85.831C0.927175 86.9928 2.62772 87.5737 4.83007 87.5737H24.2888C30.2547 87.5737 35.5236 86.7992 40.0956 85.2225C44.6675 83.6735 48.5704 81.3777 51.7485 78.3904C54.9266 75.4031 57.3241 71.7243 58.9689 67.3816C60.6137 63.0389 61.4221 58.0324 61.4221 52.3896C61.4221 41.1042 58.1883 32.4465 51.7485 26.3889C45.2808 20.3866 36.1369 17.3716 24.2888 17.3716ZM46.4796 63.2325C45.476 66.3305 43.9427 68.8752 41.9076 70.8944C39.8725 72.9136 37.3357 74.435 34.2691 75.4861C31.2304 76.5095 27.6342 77.035 23.4804 77.035H10.8238V27.9102H23.4804C31.6486 27.9102 37.7538 29.9294 41.8519 33.9955C45.922 38.0339 47.985 44.1745 47.985 52.4173C47.985 56.5387 47.4832 60.1345 46.4796 63.2325Z" fill="white"/>
<path d="M104.438 21.9355C103.574 19.9992 102.515 18.6439 101.288 17.8141C100.061 16.9842 98.6674 16.5693 97.1341 16.5693C95.6008 16.5693 94.0954 16.9842 92.8688 17.8141C91.6422 18.6439 90.5828 20.0269 89.7186 21.9355L63.2346 80.1882C62.5656 81.7096 62.3425 83.0926 62.5377 84.3096C62.7328 85.5267 63.3183 86.5225 64.294 87.2416C65.2697 87.9608 66.5521 88.3481 68.169 88.3481C69.8974 88.3481 71.2356 87.9055 72.1834 87.048C73.1313 86.1905 74.0234 84.7799 74.8876 82.8713L79.822 71.3093H114.335L119.353 82.8713C120.161 84.7245 121.081 86.1076 122.113 86.9927C123.144 87.8778 124.594 88.3481 126.489 88.3481C128.023 88.3481 129.277 87.9885 130.197 87.297C131.145 86.6055 131.703 85.6097 131.898 84.365C132.093 83.0926 131.842 81.7096 131.089 80.1882L104.438 21.9355ZM96.9111 31.2017H97.1062L109.902 61.1855H84.1988L96.9111 31.2017Z" fill="white"/>
<path d="M182.579 51.3379C185.534 50.2315 187.959 48.5718 189.855 46.3314C192.336 43.3994 193.563 39.8312 193.563 35.5715C193.563 31.782 192.643 28.5457 190.803 25.8073C188.963 23.0966 186.315 20.9944 182.83 19.5284C179.345 18.0624 175.136 17.3433 170.173 17.3433H146.087C143.885 17.3433 142.184 17.9241 141.013 19.0859C139.842 20.2476 139.257 21.9349 139.257 24.1201V80.7685C139.257 82.9537 139.842 84.641 141.013 85.8027C142.184 86.9645 143.885 87.5453 146.087 87.5453H171.289C178.843 87.5453 184.754 85.8304 188.991 82.4282C193.228 78.9983 195.375 74.1854 195.375 67.9341C195.375 63.1489 194.009 59.2764 191.249 56.2891C189.075 53.9103 186.147 52.2783 182.579 51.3379ZM151.607 27.0244H167.971C172.376 27.0244 175.693 27.8819 177.868 29.5692C180.042 31.2564 181.129 33.7735 181.129 37.0928C181.129 40.412 180.042 42.9291 177.868 44.6164C175.693 46.3037 172.404 47.1612 167.971 47.1612H151.607V27.0244ZM179.708 75.2641C177.561 77.0344 174.216 77.8919 169.672 77.8919H151.607V56.787H169.672C174.216 56.787 177.561 57.6445 179.708 59.3871C181.854 61.102 182.914 63.7574 182.914 67.3532C182.914 70.9491 181.854 73.5215 179.708 75.2641Z" fill="white"/>
<path d="M245.862 38.0886C243.854 38.0886 242.321 38.6142 241.234 39.6376C240.174 40.661 239.617 42.2377 239.617 44.3675V66.2746C239.617 70.064 238.558 73.1067 236.411 75.3748C234.264 77.6706 231.532 78.8047 228.187 78.8047C225.12 78.8047 222.862 77.9749 221.468 76.3153C220.075 74.6557 219.35 72.1109 219.35 68.6534V44.3675C219.35 42.2377 218.792 40.661 217.705 39.6376C216.59 38.6142 215.057 38.0886 213.049 38.0886C211.042 38.0886 209.509 38.6142 208.422 39.6376C207.362 40.661 206.805 42.2377 206.805 44.3675V68.4597C206.805 72.9131 207.446 76.6195 208.756 79.6069C210.066 82.5942 212.046 84.8347 214.722 86.3283C217.398 87.822 220.771 88.5688 224.87 88.5688C228.968 88.5688 232.118 87.6007 234.961 85.6922C236.996 84.3091 238.641 82.5112 239.924 80.2984V82.0133C239.924 84.0602 240.453 85.6368 241.54 86.7433C242.6 87.8497 244.105 88.3752 246.057 88.3752C250.127 88.3752 252.19 86.2454 252.19 82.0133V44.3675C252.19 42.2377 251.632 40.661 250.545 39.6376C249.43 38.6142 247.897 38.0886 245.889 38.0886H245.862Z" fill="white"/>
<path d="M304.852 40.9658C301.646 38.9189 297.854 37.8678 293.506 37.8678C289.435 37.8678 285.839 38.8636 282.773 40.8552C280.57 42.2658 278.925 44.0084 277.755 46.083V22.8482C277.755 20.8014 277.197 19.2247 276.11 18.1736C275.022 17.1225 273.461 16.5693 271.454 16.5693C269.447 16.5693 267.914 17.0949 266.826 18.1736C265.767 19.2247 265.209 20.8014 265.209 22.8482V81.9862C265.209 84.033 265.739 85.6097 266.826 86.7161C267.886 87.8225 269.447 88.3481 271.454 88.3481C273.461 88.3481 274.911 87.7948 275.97 86.7161C277.03 85.6097 277.587 84.033 277.587 81.9862V79.9116C278.73 82.1245 280.403 83.9777 282.661 85.4714C285.783 87.5182 289.407 88.5693 293.561 88.5693C297.715 88.5693 301.618 87.5459 304.852 85.4714C308.086 83.4245 310.623 80.4648 312.435 76.6477C314.247 72.8306 315.139 68.3219 315.139 63.1494C315.139 57.9769 314.247 53.413 312.435 49.6512C310.623 45.8894 308.113 42.985 304.908 40.9381L304.852 40.9658ZM300.893 71.9731C299.862 74.3242 298.412 76.0945 296.516 77.3116C294.621 78.5286 292.474 79.1095 289.993 79.1095C286.257 79.1095 283.246 77.7541 280.96 75.0711C278.674 72.388 277.559 68.4049 277.559 63.1771C277.559 59.6642 278.089 56.7322 279.121 54.3534C280.152 52.0023 281.602 50.232 283.497 49.0703C285.365 47.9086 287.54 47.3277 290.021 47.3277C293.756 47.3277 296.767 48.6277 299.053 51.2555C301.339 53.8832 302.454 57.8386 302.454 63.1494C302.454 66.6623 301.925 69.5943 300.893 71.9731Z" fill="white"/>
<path d="M365.068 40.9658C361.862 38.9189 358.07 37.8678 353.721 37.8678C349.651 37.8678 346.055 38.8636 342.988 40.8552C340.786 42.2658 339.141 44.0084 337.97 46.083V22.8482C337.97 20.8014 337.413 19.2247 336.326 18.1736C335.238 17.1225 333.677 16.5693 331.67 16.5693C329.663 16.5693 328.129 17.0949 327.042 18.1736C325.983 19.2247 325.425 20.8014 325.425 22.8482V81.9862C325.425 84.033 325.955 85.6097 327.042 86.7161C328.102 87.8225 329.663 88.3481 331.67 88.3481C333.677 88.3481 335.127 87.7948 336.186 86.7161C337.246 85.6097 337.803 84.033 337.803 81.9862V79.9116C338.946 82.1245 340.619 83.9777 342.877 85.4714C345.999 87.5182 349.623 88.5693 353.777 88.5693C357.931 88.5693 361.834 87.5459 365.068 85.4714C368.301 83.4245 370.838 80.4648 372.65 76.6477C374.462 72.8306 375.355 68.3219 375.355 63.1494C375.355 57.9769 374.462 53.413 372.65 49.6512C370.838 45.8894 368.329 42.985 365.123 40.9381L365.068 40.9658ZM361.109 71.9731C360.077 74.3242 358.628 76.0945 356.732 77.3116C354.836 78.5286 352.69 79.1095 350.209 79.1095C346.473 79.1095 343.462 77.7541 341.176 75.0711C338.89 72.388 337.775 68.4049 337.775 63.1771C337.775 59.6642 338.305 56.7322 339.336 54.3534C340.368 52.0023 341.817 50.232 343.713 49.0703C345.581 47.9086 347.755 47.3277 350.237 47.3277C353.972 47.3277 356.983 48.6277 359.269 51.2555C361.555 53.8832 362.67 57.8386 362.67 63.1494C362.67 66.6623 362.14 69.5943 361.109 71.9731Z" fill="white"/>
<path d="M408.641 78.1137C408.167 78.169 407.693 78.2243 407.247 78.252C406.773 78.2797 406.271 78.3073 405.742 78.3073C403.344 78.3073 401.476 77.5882 400.166 76.1222C398.856 74.6562 398.215 72.4157 398.215 69.3454V22.8482C398.215 20.8014 397.657 19.2247 396.57 18.1736C395.483 17.1225 393.922 16.5693 391.914 16.5693C389.907 16.5693 388.374 17.0949 387.287 18.1736C386.227 19.2247 385.67 20.8014 385.67 22.8482V69.9539C385.67 76.0668 387.064 80.6861 389.879 83.8394C392.695 86.9927 396.877 88.5693 402.424 88.5693C403.149 88.5693 403.902 88.5417 404.627 88.4587C405.351 88.4034 406.076 88.3204 406.745 88.2651C408.279 88.0714 409.394 87.4906 410.063 86.5778C410.732 85.6373 411.066 84.365 411.066 82.7053C411.066 80.7691 410.899 79.4967 410.565 78.8605C410.23 78.2243 409.589 77.9754 408.669 78.1137H408.641Z" fill="white"/>
<path d="M457.315 75.1817C456.256 75.0711 455.001 75.4307 453.608 76.2328C451.656 77.2839 449.621 78.0307 447.447 78.4733C445.272 78.9159 443.321 79.1095 441.564 79.1095C436.546 79.1095 432.755 77.7541 430.162 75.0711C428.127 72.9412 426.928 69.9262 426.51 66.0538H456.814C458.347 66.0538 459.546 65.7495 460.382 65.1133C461.218 64.4771 461.636 63.5644 461.636 62.375C461.636 58.5855 461.107 55.1833 460.075 52.1683C459.044 49.1533 457.538 46.5809 455.559 44.451C453.58 42.3212 451.21 40.6892 448.422 39.5828C445.635 38.4487 442.512 37.8955 439.027 37.8955C434.288 37.8955 430.051 38.9743 426.343 41.1318C422.635 43.2893 419.708 46.2489 417.617 50.0384C415.499 53.8279 414.467 58.2259 414.467 63.2878C414.467 68.3496 415.554 72.9412 417.729 76.7307C419.903 80.5202 422.998 83.4245 427.012 85.499C431.026 87.5459 435.821 88.597 441.369 88.597C443.99 88.597 446.805 88.2374 449.844 87.5459C452.883 86.8544 455.587 85.7757 457.929 84.3097C459.127 83.5905 459.992 82.7053 460.493 81.7096C460.995 80.7138 461.19 79.7457 461.051 78.7776C460.912 77.8095 460.521 77.0073 459.908 76.3435C459.267 75.6796 458.43 75.2924 457.343 75.2094L457.315 75.1817ZM432.365 48.2958C434.344 46.9958 436.741 46.3596 439.529 46.3596C442.066 46.3596 444.185 46.9128 445.913 47.9916C447.614 49.098 448.924 50.6746 449.816 52.7215C450.569 54.4364 450.987 56.511 451.126 58.8897H426.51C426.761 57.0088 427.179 55.2662 427.848 53.7726C428.88 51.4214 430.385 49.5959 432.365 48.2958Z" fill="white"/>
</g>
</g>
<defs>
<clipPath id="clip0_2410_19735">
<rect width="470" height="105" fill="white"/>
</clipPath>
<clipPath id="clip1_2410_19735">
<rect width="472" height="72" fill="white" transform="translate(-2 16.5693)"/>
</clipPath>
</defs>
</svg>
